<svg version="1" xmlns="http://www.w3.org/2000/svg" width="682.667" height="682.667" viewBox="0 0 512.000000 512.000000">
    <path d="M308.7 10.9C307.1 31.5 293.4 68.8 279 92c-2.3 3.6-5.2 10.1-6.5 14.5-1.3 4.4-4.2 14.3-6.5 22-14.2 47.9-37.9 97.2-65.7 136.5-45.9 65-66.8 109.5-72.9 155.5-1.8 13.5-1.4 32.6.9 43.3l1.4 6.4-3.1-.6c-6.8-1.3-21.6-9.8-29.1-16.8-12.4-11.6-19.1-24.4-22-41.9-1.1-6.9-2.1-10-4.1-12.6-9.2-12.1-29.4-5.4-29.4 9.8 0 15.4 9.9 41.5 21.8 57.5 16.5 22.1 38.7 35.3 69.6 41.2 8.2 1.5 17.8 1.7 95.6 1.7 82.5 0 86.7-.1 90-1.9 14.5-7.7 18.3-25.2 7.9-36.9-5.3-6.1-9.7-7.9-20.2-8.6l-8.7-.6 7.5-15.4c4.1-8.4 11-21.7 15.2-29.4l7.7-14 9.7 42.9c5.4 23.6 10.5 45.3 11.4 48.2 3.8 12.3 15.9 19.2 28.4 16.2 9.8-2.3 18.1-12.6 18.1-22.4 0-1.7-7.9-37.7-17.6-80.1l-17.7-77 1.8-8c2.3-10.5 3.1-38.4 1.6-53.9-1.3-13.5-5-32.3-9-46.3l-2.8-9.8 2.5-9.7 2.4-9.8h84.6l14-23 14-23-6.1-3.6c-3.4-2-17.7-10.3-31.7-18.5l-25.5-14.8-10-17.5-10-17.6-7-2.5c-12.4-4.4-23.4-6.6-37.2-7.2l-13.3-.6v-3.2c0-5.1-2.8-18.7-5.6-27.3C321 26 310.6 3 309.7 3c-.2 0-.7 3.6-1 7.9zm64.1 80.7c1.3.9 3 3.2 3.9 5.1 1.2 3.1 1.3 4.1.1 7.2-3 7.9-12 10.2-17.9 4.5-5.6-5.3-4.6-12.6 2.1-17.2 3.8-2.6 7.4-2.4 11.8.4z"/>
</svg>
